<?xml version="1.0" encoding="UTF-8"?>
<svg id="Layer_1" data-name="Layer 1" xmlns="http://www.w3.org/2000/svg" viewBox="0 0 284 140">
  <defs>
    <style>
      .cls-1 {
        fill: #000;
        stroke-width: 0px;
      }

      .cls-2 {
        fill: none;
        stroke: #000;
        stroke-miterlimit: 10;
        stroke-width: 7px;
      }

      .cls-3 {
        isolation: isolate;
      }
    </style>
  </defs>
  <rect class="cls-2" x="9.56" y="9.31" width="267" height="120.71" rx="14.95" ry="14.95"/>
  <g class="cls-3">
    <g class="cls-3">
      <path class="cls-1" d="M50.36,63.63h-27.84c-1.44,0-2.16-.72-2.16-2.16V22.59c0-1.44.72-2.16,2.16-2.16h27.84c1.44,0,2.16.72,2.16,2.16v7.02c0,1.44-.72,2.16-2.16,2.16h-16.56v4.62h11.7c1.44,0,2.16.72,2.16,2.16v6.42c0,1.44-.72,2.16-2.16,2.16h-11.7v5.16h16.56c1.44,0,2.16.72,2.16,2.16v7.02c0,1.44-.72,2.16-2.16,2.16Z"/>
      <path class="cls-1" d="M70.76,63.63h-9c-1.44,0-2.16-.72-2.16-2.16V22.59c0-1.44.72-2.16,2.16-2.16h6.24c1.44,0,2.62.54,3.54,1.62l11.64,13.32v-12.78c0-1.44.72-2.16,2.16-2.16h9c1.44,0,2.16.72,2.16,2.16v38.88c0,1.44-.72,2.16-2.16,2.16h-9c-1.44,0-2.16-.72-2.16-2.16v-7.38l-10.26-12.42v19.8c0,1.44-.72,2.16-2.16,2.16Z"/>
      <path class="cls-1" d="M134.78,63.63h-27.84c-1.44,0-2.16-.72-2.16-2.16V22.59c0-1.44.72-2.16,2.16-2.16h27.84c1.44,0,2.16.72,2.16,2.16v7.02c0,1.44-.72,2.16-2.16,2.16h-16.56v4.62h11.7c1.44,0,2.16.72,2.16,2.16v6.42c0,1.44-.72,2.16-2.16,2.16h-11.7v5.16h16.56c1.44,0,2.16.72,2.16,2.16v7.02c0,1.44-.72,2.16-2.16,2.16Z"/>
      <path class="cls-1" d="M155.42,63.63h-9.24c-1.44,0-2.16-.72-2.16-2.16V22.59c0-1.44.72-2.16,2.16-2.16h19.98c3,0,5.36.42,7.08,1.26,1.72.84,2.94,2.01,3.66,3.51.72,1.5,1.08,3.25,1.08,5.25v2.76c0,1.68-.24,3.1-.72,4.26-.48,1.16-1.36,2.02-2.64,2.58,2.2.24,3.96,1.12,5.28,2.64,1.32,1.52,1.98,3.54,1.98,6.06v12.72c0,1.44-.72,2.16-2.16,2.16h-9.3c-1.44,0-2.16-.72-2.16-2.16v-9.18c0-.92-.17-1.58-.51-1.98-.34-.4-.93-.6-1.77-.6h-8.4v11.76c0,1.44-.72,2.16-2.16,2.16ZM157.58,31.23v7.68h4.5c1.04,0,1.74-.27,2.1-.81.36-.54.54-1.21.54-2.01v-2.04c0-.8-.18-1.47-.54-2.01-.36-.54-1.06-.81-2.1-.81h-4.5Z"/>
      <path class="cls-1" d="M221.3,63.63h-18.9c-5.04,0-8.76-1-11.16-3-2.4-2-3.6-5.08-3.6-9.24v-18.72c0-4.16,1.2-7.24,3.6-9.24,2.4-2,6.12-3,11.16-3h15c1.44,0,2.16.72,2.16,2.16v7.26c0,1.44-.72,2.16-2.16,2.16h-12.48c-2.44,0-3.66,1-3.66,3v14.34c0,1.96.92,2.94,2.76,2.94h5.82v-9.36c0-1.44.72-2.16,2.16-2.16h9.3c1.44,0,2.16.72,2.16,2.16v18.54c0,1.44-.72,2.16-2.16,2.16Z"/>
      <path class="cls-1" d="M250.88,63.63h-9.72c-1.44,0-2.16-.72-2.16-2.16v-7.68l-9.18-12.3c-.6-.84-1.07-1.58-1.41-2.22-.34-.64-.57-1.35-.69-2.13-.12-.78-.18-1.79-.18-3.03v-11.52c0-1.44.72-2.16,2.16-2.16h9.24c1.44,0,2.16.72,2.16,2.16v9.84c0,.4.02.81.06,1.23s.2.85.48,1.29l2.76,4.32c.4.68.88,1.02,1.44,1.02h.6c.56,0,1.04-.34,1.44-1.02l2.76-4.32c.28-.44.44-.87.48-1.29s.06-.83.06-1.23v-9.84c0-1.44.72-2.16,2.16-2.16h8.94c1.44,0,2.16.72,2.16,2.16v11.52c0,1.24-.06,2.25-.18,3.03-.12.78-.35,1.49-.69,2.13-.34.64-.81,1.38-1.41,2.22l-9.12,12.36v7.62c0,1.44-.72,2.16-2.16,2.16Z"/>
    </g>
  </g>
  <g class="cls-3">
    <g class="cls-3">
      <path class="cls-1" d="M44.85,117.07h-23.04c-1.44,0-2.16-.72-2.16-2.16v-38.88c0-1.44.72-2.16,2.16-2.16h19.14c3.92,0,6.82.74,8.7,2.22,1.88,1.48,2.82,3.8,2.82,6.96v2.88c0,3.32-1.18,5.48-3.54,6.48,2.6.24,4.51,1.11,5.73,2.61,1.22,1.5,1.83,3.73,1.83,6.69v5.52c0,3.36-.94,5.84-2.82,7.44-1.88,1.6-4.82,2.4-8.82,2.4ZM33.15,84.07v6.48h5.1c1.52,0,2.28-.8,2.28-2.4v-1.68c0-1.6-.76-2.4-2.28-2.4h-5.1ZM33.15,99.79v7.08h7.8c1.52,0,2.28-.8,2.28-2.4v-2.34c0-1.56-.76-2.34-2.28-2.34h-7.8Z"/>
      <path class="cls-1" d="M75.39,114.91c0,1.44-.72,2.16-2.16,2.16h-8.82c-1.44,0-2.16-.72-2.16-2.16v-15.84c0-1.2.19-2.58.57-4.14.38-1.56.97-3.38,1.77-5.46l5.22-13.62c.44-1.32,1.46-1.98,3.06-1.98h16.14c1.56,0,2.56.66,3,1.98l5.22,13.62c.8,2.08,1.39,3.9,1.77,5.46.38,1.56.57,2.94.57,4.14v15.84c0,1.44-.72,2.16-2.16,2.16h-9.06c-1.56,0-2.34-.72-2.34-2.16v-8.4h-10.62v8.4ZM78.81,86.47l-2.82,9.12h9.42l-2.82-9.12c-.28-.68-.66-1.02-1.14-1.02h-1.5c-.48,0-.86.34-1.14,1.02Z"/>
      <path class="cls-1" d="M118.35,117.07h-9.24c-1.44,0-2.16-.72-2.16-2.16v-38.88c0-1.44.72-2.16,2.16-2.16h19.98c3,0,5.36.42,7.08,1.26,1.72.84,2.94,2.01,3.66,3.51.72,1.5,1.08,3.25,1.08,5.25v2.76c0,1.68-.24,3.1-.72,4.26-.48,1.16-1.36,2.02-2.64,2.58,2.2.24,3.96,1.12,5.28,2.64,1.32,1.52,1.98,3.54,1.98,6.06v12.72c0,1.44-.72,2.16-2.16,2.16h-9.3c-1.44,0-2.16-.72-2.16-2.16v-9.18c0-.92-.17-1.58-.51-1.98-.34-.4-.93-.6-1.77-.6h-8.4v11.76c0,1.44-.72,2.16-2.16,2.16ZM120.51,84.67v7.68h4.5c1.04,0,1.74-.27,2.1-.81s.54-1.21.54-2.01v-2.04c0-.8-.18-1.47-.54-2.01s-1.06-.81-2.1-.81h-4.5Z"/>
    </g>
  </g>
  <rect class="cls-1" x="256.06" y="88.15" width="6" height="14" rx="1.28" ry="1.28"/>
  <path class="cls-1" d="M254.34,73.65h-95.58c-1.5,0-2.71,1.21-2.71,2.71v37.58c0,1.5,1.21,2.71,2.71,2.71h95.58c1.5,0,2.71-1.21,2.71-2.71v-37.58c0-1.5-1.21-2.71-2.71-2.71h0ZM249.06,106.67c0,.63-.51,1.14-1.14,1.14h-81.71c-.63,0-1.14-.51-1.14-1.14v-22.71c0-.63.51-1.14,1.14-1.14h81.71c.63,0,1.14.51,1.14,1.14v22.71h0Z"/>
  <polygon class="cls-1" points="211.56 85.31 178.56 95.31 203.56 96.31 200.56 105.31 233.56 95.31 209.56 94.31 211.56 85.31"/>
</svg>