<?xml version="1.0" encoding="UTF-8"?>
<svg id="Logo_1" data-name="Logo 1" xmlns="http://www.w3.org/2000/svg" xmlns:xlink="http://www.w3.org/1999/xlink" viewBox="0 0 331 138">
  <defs>
    <style>
      .cls-1 {
        fill: none;
      }

      .cls-2 {
        fill: #efefef;
      }

      .cls-3 {
        fill: url(#New_Pattern_6);
      }

      .cls-4 {
        fill: #fff;
      }
    </style>
    <pattern id="New_Pattern_6" data-name="New Pattern 6" x="0" y="0" width="165.67" height="139.57" patternTransform="translate(-2064.21 -1701.26)" patternUnits="userSpaceOnUse" viewBox="0 0 165.67 139.57">
      <g>
        <rect class="cls-1" width="165.67" height="139.57"/>
        <g>
          <path class="cls-2" d="M23.23,126.57h34.52s2.92.79,2.76,3.33c0,0,0,3.17-2.38,3.17h-3.82l.17,22.85,26.18,41.72s2.06,6.03-1.11,8.41c0,0-2.54,2.86-6.19,3.17H8.32s-4.76-.48-6.83-3.65c0,0-4.36-3.89,1.82-12.14,6.19-8.25,23.64-37.6,23.64-37.6v-22.69s-5.55.63-6.03-2.54c-.48-3.17,2.3-4.05,2.3-4.05Z"/>
          <path class="cls-4" d="M33.54,146.72v10.96l-17.13,27.27-6.82,10.79-2.7,4.12s-1.75,2.7,2.38,2.86,33.56,0,33.56,0l29.72.07s3.51-.39,1.93-2.77c-1.59-2.38-26.49-42.2-26.49-42.2l-.16-24.75h-14.3l.02,13.64Z"/>
        </g>
        <g>
          <path class="cls-2" d="M23.23-13h34.52s2.92.79,2.76,3.33c0,0,0,3.17-2.38,3.17h-3.82l.17,22.85,26.18,41.72s2.06,6.03-1.11,8.41c0,0-2.54,2.86-6.19,3.17H8.32s-4.76-.48-6.83-3.65c0,0-4.36-3.89,1.82-12.14,6.19-8.25,23.64-37.6,23.64-37.6V-6.42s-5.55.63-6.03-2.54c-.48-3.17,2.3-4.05,2.3-4.05Z"/>
          <path class="cls-4" d="M33.54,7.15v10.96l-17.13,27.27-6.82,10.79-2.7,4.12s-1.75,2.7,2.38,2.86,33.56,0,33.56,0l29.72.07s3.51-.39,1.93-2.77c-1.59-2.38-26.49-42.2-26.49-42.2l-.16-24.75h-14.3l.02,13.64Z"/>
          <polygon class="cls-2" points="14.03 58.55 67.41 58.55 55.12 38.88 26.41 38.88 14.03 58.55"/>
          <path class="cls-2" d="M107.58,56.92h34.52s2.92.79,2.76,3.33c0,0,0,3.17-2.38,3.17h-3.82l.17,22.85,26.18,41.72s2.06,6.03-1.11,8.41c0,0-2.54,2.86-6.19,3.17h-65.04s-4.76-.48-6.83-3.65c0,0-4.36-3.89,1.82-12.14,6.19-8.25,23.64-37.6,23.64-37.6v-22.69s-5.55.63-6.03-2.54,2.3-4.05,2.3-4.05Z"/>
          <path class="cls-4" d="M117.89,77.07v10.96l-17.13,27.27-6.82,10.79-2.7,4.12s-1.75,2.7,2.38,2.86c4.12.16,33.56,0,33.56,0l29.72.07s3.51-.39,1.93-2.77-26.49-42.2-26.49-42.2l-.16-24.75h-14.3l.02,13.64Z"/>
          <polygon class="cls-2" points="98.38 128.47 151.76 128.47 139.47 108.8 110.76 108.8 98.38 128.47"/>
        </g>
      </g>
    </pattern>
  </defs>
  <rect class="cls-3" width="331" height="138"/>
</svg>