<?xml version="1.0" encoding="UTF-8"?>
<svg id="Layer_1" data-name="Layer 1" xmlns="http://www.w3.org/2000/svg" viewBox="0 0 284 140">
  <path d="M260.55,6.15H23.45C13.28,6.15,5,14.42,5,24.59v90.81c0,10.17,8.28,18.45,18.45,18.45h237.1c10.17,0,18.45-8.28,18.45-18.45V24.59c0-10.17-8.28-18.45-18.45-18.45ZM272,115.41c0,6.31-5.14,11.45-11.45,11.45H23.45c-6.31,0-11.45-5.14-11.45-11.45V24.59c0-6.31,5.14-11.45,11.45-11.45h237.1c6.31,0,11.45,5.14,11.45,11.45v90.81Z"/>
  <path d="M21.46,63.97h27.84c1.44,0,2.16-.72,2.16-2.16v-7.02c0-1.44-.72-2.16-2.16-2.16h-16.56v-5.16h11.7c1.44,0,2.16-.72,2.16-2.16v-6.42c0-1.44-.72-2.16-2.16-2.16h-11.7v-4.62h16.56c1.44,0,2.16-.72,2.16-2.16v-7.02c0-1.44-.72-2.16-2.16-2.16h-27.84c-1.44,0-2.16.72-2.16,2.16v38.88c0,1.44.72,2.16,2.16,2.16Z"/>
  <path d="M71.86,61.81v-19.8l10.26,12.42v7.38c0,1.44.72,2.16,2.16,2.16h9c1.44,0,2.16-.72,2.16-2.16V22.93c0-1.44-.72-2.16-2.16-2.16h-9c-1.44,0-2.16.72-2.16,2.16v12.78l-11.64-13.32c-.92-1.08-2.1-1.62-3.54-1.62h-6.24c-1.44,0-2.16.72-2.16,2.16v38.88c0,1.44.72,2.16,2.16,2.16h9c1.44,0,2.16-.72,2.16-2.16Z"/>
  <path d="M135.88,61.81v-7.02c0-1.44-.72-2.16-2.16-2.16h-16.56v-5.16h11.7c1.44,0,2.16-.72,2.16-2.16v-6.42c0-1.44-.72-2.16-2.16-2.16h-11.7v-4.62h16.56c1.44,0,2.16-.72,2.16-2.16v-7.02c0-1.44-.72-2.16-2.16-2.16h-27.84c-1.44,0-2.16.72-2.16,2.16v38.88c0,1.44.72,2.16,2.16,2.16h27.84c1.44,0,2.16-.72,2.16-2.16Z"/>
  <path d="M156.52,61.81v-11.76h8.4c.84,0,1.43.2,1.77.6.34.4.51,1.06.51,1.98v9.18c0,1.44.72,2.16,2.16,2.16h9.3c1.44,0,2.16-.72,2.16-2.16v-12.72c0-2.52-.66-4.54-1.98-6.06s-3.08-2.4-5.28-2.64c1.28-.56,2.16-1.42,2.64-2.58.48-1.16.72-2.58.72-4.26v-2.76c0-2-.36-3.75-1.08-5.25-.72-1.5-1.94-2.67-3.66-3.51-1.72-.84-4.08-1.26-7.08-1.26h-19.98c-1.44,0-2.16.72-2.16,2.16v38.88c0,1.44.72,2.16,2.16,2.16h9.24c1.44,0,2.16-.72,2.16-2.16ZM156.52,31.57h4.5c1.04,0,1.74.27,2.1.81.36.54.54,1.21.54,2.01v2.04c0,.8-.18,1.47-.54,2.01-.36.54-1.06.81-2.1.81h-4.5v-7.68Z"/>
  <path d="M190.18,60.97c2.4,2,6.12,3,11.16,3h18.9c1.44,0,2.16-.72,2.16-2.16v-18.54c0-1.44-.72-2.16-2.16-2.16h-9.3c-1.44,0-2.16.72-2.16,2.16v9.36h-5.82c-1.84,0-2.76-.98-2.76-2.94v-14.34c0-2,1.22-3,3.66-3h12.48c1.44,0,2.16-.72,2.16-2.16v-7.26c0-1.44-.72-2.16-2.16-2.16h-15c-5.04,0-8.76,1-11.16,3-2.4,2-3.6,5.08-3.6,9.24v18.72c0,4.16,1.2,7.24,3.6,9.24Z"/>
  <path d="M261.22,20.77h-8.94c-1.44,0-2.16.72-2.16,2.16v9.84c0,.4-.02.81-.06,1.23-.04.42-.2.85-.48,1.29l-2.76,4.32c-.4.68-.88,1.02-1.44,1.02h-.6c-.56,0-1.04-.34-1.44-1.02l-2.76-4.32c-.28-.44-.44-.87-.48-1.29-.04-.42-.06-.83-.06-1.23v-9.84c0-1.44-.72-2.16-2.16-2.16h-9.24c-1.44,0-2.16.72-2.16,2.16v11.52c0,1.24.06,2.25.18,3.03.12.78.35,1.49.69,2.13.34.64.81,1.38,1.41,2.22l9.18,12.3v7.68c0,1.44.72,2.16,2.16,2.16h9.72c1.44,0,2.16-.72,2.16-2.16v-7.62l9.12-12.36c.6-.84,1.07-1.58,1.41-2.22.34-.64.57-1.35.69-2.13.12-.78.18-1.79.18-3.03v-11.52c0-1.44-.72-2.16-2.16-2.16Z"/>
  <path d="M47.87,92.75c2.36-1,3.54-3.16,3.54-6.48v-2.88c0-3.16-.94-5.48-2.82-6.96-1.88-1.48-4.78-2.22-8.7-2.22h-19.14c-1.44,0-2.16.72-2.16,2.16v38.88c0,1.44.72,2.16,2.16,2.16h23.04c4,0,6.94-.8,8.82-2.4,1.88-1.6,2.82-4.08,2.82-7.44v-5.52c0-2.96-.61-5.19-1.83-6.69-1.22-1.5-3.13-2.37-5.73-2.61ZM32.09,84.41h5.1c1.52,0,2.28.8,2.28,2.4v1.68c0,1.6-.76,2.4-2.28,2.4h-5.1v-6.48ZM42.17,104.81c0,1.6-.76,2.4-2.28,2.4h-7.8v-7.08h7.8c1.52,0,2.28.78,2.28,2.34v2.34Z"/>
  <path d="M96.17,89.81l-5.22-13.62c-.44-1.32-1.44-1.98-3-1.98h-16.14c-1.6,0-2.62.66-3.06,1.98l-5.22,13.62c-.8,2.08-1.39,3.9-1.77,5.46s-.57,2.94-.57,4.14v15.84c0,1.44.72,2.16,2.16,2.16h8.82c1.44,0,2.16-.72,2.16-2.16v-8.4h10.62v8.4c0,1.44.78,2.16,2.34,2.16h9.06c1.44,0,2.16-.72,2.16-2.16v-15.84c0-1.2-.19-2.58-.57-4.14s-.97-3.38-1.77-5.46ZM74.93,95.93l2.82-9.12c.28-.68.66-1.02,1.14-1.02h1.5c.48,0,.86.34,1.14,1.02l2.82,9.12h-9.42Z"/>
  <path d="M136.49,93.83c1.28-.56,2.16-1.42,2.64-2.58.48-1.16.72-2.58.72-4.26v-2.76c0-2-.36-3.75-1.08-5.25-.72-1.5-1.94-2.67-3.66-3.51-1.72-.84-4.08-1.26-7.08-1.26h-19.98c-1.44,0-2.16.72-2.16,2.16v38.88c0,1.44.72,2.16,2.16,2.16h9.24c1.44,0,2.16-.72,2.16-2.16v-11.76h8.4c.84,0,1.43.2,1.77.6.34.4.51,1.06.51,1.98v9.18c0,1.44.72,2.16,2.16,2.16h9.3c1.44,0,2.16-.72,2.16-2.16v-12.72c0-2.52-.66-4.54-1.98-6.06s-3.08-2.4-5.28-2.64ZM126.59,89.87c0,.8-.18,1.47-.54,2.01-.36.54-1.06.81-2.1.81h-4.5v-7.68h4.5c1.04,0,1.74.27,2.1.81.36.54.54,1.21.54,2.01v2.04Z"/>
  <path d="M259.72,88.49h-3.44c-.1,0-.19.04-.29.06v-11.85c0-1.5-1.21-2.71-2.71-2.71h-95.58c-1.5,0-2.71,1.21-2.71,2.71v37.58c0,1.5,1.21,2.71,2.71,2.71h95.58c1.5,0,2.71-1.21,2.71-2.71v-11.85c.1.02.19.06.29.06h3.44c.71,0,1.28-.57,1.28-1.28v-11.44c0-.71-.57-1.28-1.28-1.28ZM248,107.01c0,.63-.51,1.14-1.14,1.14h-81.71c-.63,0-1.14-.51-1.14-1.14v-22.71c0-.63.51-1.14,1.14-1.14h81.71c.63,0,1.14.51,1.14,1.14v22.71Z"/>
  <polygon points="210.5 85.65 177.5 95.65 202.5 96.65 199.5 105.65 232.5 95.65 208.5 94.65 210.5 85.65"/>
</svg>