<?xml version="1.0" encoding="UTF-8"?>
<svg id="Layer_3" data-name="Layer 3" xmlns="http://www.w3.org/2000/svg" xmlns:xlink="http://www.w3.org/1999/xlink" viewBox="0 0 486.14 190">
  <defs>
    <style>
      .cls-1 {
        fill: none;
      }

      .cls-2 {
        fill: #ff1d9c;
      }

      .cls-3 {
        fill: url(#New_Pattern_5);
      }

      .cls-4 {
        fill: #d31a89;
      }
    </style>
    <pattern id="New_Pattern_5" data-name="New Pattern 5" x="0" y="0" width="241.19" height="185.77" patternTransform="translate(-1657.86 -1412)" patternUnits="userSpaceOnUse" viewBox="0 0 241.19 185.77">
      <g>
        <rect class="cls-1" width="241.19" height="185.77"/>
        <polygon class="cls-4" points="2.52 44.9 106.06 44.9 108.27 45.43 110.93 46.5 113.05 48.09 115.44 50.22 117.3 53.4 118.63 56.86 118.9 60.31 118.9 63.1 118.36 65.63 117.3 68.55 115.18 71.74 112.25 75.19 109.86 77.32 106.67 79.18 104.02 80.5 101.09 81.57 98.44 82.1 93.92 82.89 88.05 82.89 87.28 84.75 85.68 87.41 83.82 90.07 80.9 94.59 77.18 98.04 73.99 101.23 71.34 103.09 70.27 103.62 70.27 104.15 85.95 104.15 86.75 104.42 87.81 105.48 88.61 107.34 88.61 108.4 87.81 110 86.75 111.32 85.68 111.59 10.49 111.59 7.97 110.39 7.17 108.8 7.17 106.94 7.97 105.08 9.03 104.28 10.1 104.02 25.24 104.02 23.38 102.95 20.72 101.09 17.54 97.91 14.35 94.19 11.96 90.47 10.1 87.54 7.97 83.82 6.38 80.11 4.25 74.79 2.39 69.74 1.06 63.1 0 56.19 0 51.16 0 47.91 .53 45.83 2.52 44.9"/>
        <rect class="cls-4" x="34.14" y="14.61" width="7.44" height="22.85" rx="2.37" ry="2.37"/>
        <rect class="cls-4" x="63.63" y="14.61" width="7.44" height="22.85" rx="2.37" ry="2.37"/>
        <rect class="cls-4" x="49.02" y="0" width="7.44" height="36.13" rx="2.37" ry="2.37"/>
        <polygon class="cls-2" points="8.51 51.81 89.67 51.81 89.67 54.59 88.48 62.44 87.15 67.22 85.03 74.13 13.15 74.13 11.16 69.61 9.3 61.37 8.51 51.81"/>
        <path class="cls-2" d="M97.37,52.34s-1.06,14.61-3.99,20.99c0,0,13.55.53,18.6-11.16,0,0,2.13-5.85-2.92-8.77l-2.83-1.06h-8.86Z"/>
        <polygon class="cls-4" points="124.82 119.09 228.35 119.09 230.56 119.62 233.22 120.68 235.34 122.27 237.73 124.4 239.59 127.59 240.92 131.04 241.19 134.5 241.19 137.28 240.66 139.81 239.59 142.73 237.47 145.92 234.54 149.37 232.15 151.5 228.97 153.36 226.31 154.69 223.39 155.75 220.73 156.28 216.21 157.08 210.34 157.08 209.57 158.94 207.98 161.6 206.12 164.25 203.19 168.77 199.47 172.22 196.29 175.41 193.63 177.27 192.57 177.8 192.57 178.33 208.24 178.33 209.04 178.6 210.1 179.66 210.9 181.52 210.9 182.58 210.1 184.18 209.04 185.51 207.98 185.77 132.79 185.77 130.26 184.58 129.46 182.98 129.46 181.12 130.26 179.26 131.32 178.47 132.39 178.2 147.53 178.2 145.67 177.14 143.01 175.28 139.83 172.09 136.64 168.37 134.25 164.65 132.39 161.73 130.26 158.01 128.67 154.29 126.54 148.98 124.68 143.93 123.35 137.28 122.29 130.38 122.29 125.34 122.29 122.1 122.82 120.01 124.82 119.09"/>
        <rect class="cls-4" x="156.43" y="88.8" width="7.44" height="22.85" rx="2.37" ry="2.37"/>
        <rect class="cls-4" x="185.92" y="88.8" width="7.44" height="22.85" rx="2.37" ry="2.37"/>
        <rect class="cls-4" x="171.31" y="74.18" width="7.44" height="36.13" rx="2.37" ry="2.37"/>
        <polygon class="cls-2" points="130.8 125.99 211.96 125.99 211.96 128.77 210.77 136.62 209.44 141.4 207.32 148.31 135.44 148.31 133.45 143.79 131.59 135.56 130.8 125.99"/>
        <path class="cls-2" d="M219.67,126.52s-1.06,14.61-3.99,20.99c0,0,13.55.53,18.6-11.16,0,0,2.13-5.85-2.92-8.77l-2.83-1.06h-8.86Z"/>
      </g>
    </pattern>
  </defs>
  <rect class="cls-3" width="486.14" height="190"/>
</svg>